<mxfile host="Electron" modified="2025-07-03T15:36:44.248Z" agent="Mozilla/5.0 (Windows NT 10.0; Win64; x64) AppleWebKit/537.36 (KHTML, like Gecko) draw.io/24.0.4 Chrome/120.0.6099.109 Electron/28.1.0 Safari/537.36" etag="UAE-7B9OCw5sPXM9uROb" version="24.0.4" type="device">
  <diagram name="Page-1" id="8uHsbGD31B5tlZg77EZc">
    <mxGraphModel dx="1276" dy="606" grid="1" gridSize="10" guides="1" tooltips="1" connect="1" arrows="1" fold="1" page="1" pageScale="1" pageWidth="850" pageHeight="1100" math="0" shadow="0">
      <root>
        <mxCell id="0" />
        <mxCell id="1" parent="0" />
        <mxCell id="FXPIXObTBwbyZidzKabE-3" style="edgeStyle=orthogonalEdgeStyle;rounded=0;orthogonalLoop=1;jettySize=auto;html=1;exitX=1;exitY=0.5;exitDx=0;exitDy=0;entryX=0;entryY=0.5;entryDx=0;entryDy=0;" edge="1" parent="1" source="FXPIXObTBwbyZidzKabE-1" target="FXPIXObTBwbyZidzKabE-2">
          <mxGeometry relative="1" as="geometry" />
        </mxCell>
        <mxCell id="FXPIXObTBwbyZidzKabE-1" value="start" style="ellipse;whiteSpace=wrap;html=1;" vertex="1" parent="1">
          <mxGeometry x="90" y="20" width="120" height="80" as="geometry" />
        </mxCell>
        <mxCell id="FXPIXObTBwbyZidzKabE-4" style="edgeStyle=orthogonalEdgeStyle;rounded=0;orthogonalLoop=1;jettySize=auto;html=1;exitX=1;exitY=0.5;exitDx=0;exitDy=0;entryX=0.5;entryY=0;entryDx=0;entryDy=0;" edge="1" parent="1" source="FXPIXObTBwbyZidzKabE-2" target="FXPIXObTBwbyZidzKabE-6">
          <mxGeometry relative="1" as="geometry">
            <mxPoint x="410" y="70" as="targetPoint" />
          </mxGeometry>
        </mxCell>
        <mxCell id="FXPIXObTBwbyZidzKabE-2" value="recive&lt;span style=&quot;background-color: initial;&quot;&gt;&amp;nbsp;request&lt;/span&gt;" style="rounded=0;whiteSpace=wrap;html=1;" vertex="1" parent="1">
          <mxGeometry x="250" y="30" width="120" height="60" as="geometry" />
        </mxCell>
        <mxCell id="FXPIXObTBwbyZidzKabE-10" style="edgeStyle=orthogonalEdgeStyle;rounded=0;orthogonalLoop=1;jettySize=auto;html=1;exitX=0.5;exitY=1;exitDx=0;exitDy=0;entryX=0.5;entryY=0;entryDx=0;entryDy=0;" edge="1" parent="1" source="FXPIXObTBwbyZidzKabE-6" target="FXPIXObTBwbyZidzKabE-7">
          <mxGeometry relative="1" as="geometry" />
        </mxCell>
        <mxCell id="FXPIXObTBwbyZidzKabE-6" value="verified_email=request.session.get(&quot;verified_email&quot;)" style="rounded=0;whiteSpace=wrap;html=1;" vertex="1" parent="1">
          <mxGeometry x="510" y="100" width="295" height="50" as="geometry" />
        </mxCell>
        <mxCell id="FXPIXObTBwbyZidzKabE-9" value="yes" style="edgeStyle=orthogonalEdgeStyle;rounded=0;orthogonalLoop=1;jettySize=auto;html=1;exitX=1;exitY=0.5;exitDx=0;exitDy=0;entryX=0.5;entryY=0;entryDx=0;entryDy=0;" edge="1" parent="1" source="FXPIXObTBwbyZidzKabE-7" target="FXPIXObTBwbyZidzKabE-8">
          <mxGeometry relative="1" as="geometry" />
        </mxCell>
        <mxCell id="FXPIXObTBwbyZidzKabE-13" value="no" style="edgeStyle=orthogonalEdgeStyle;rounded=0;orthogonalLoop=1;jettySize=auto;html=1;exitX=0;exitY=0.5;exitDx=0;exitDy=0;entryX=0.5;entryY=0;entryDx=0;entryDy=0;" edge="1" parent="1" source="FXPIXObTBwbyZidzKabE-7" target="FXPIXObTBwbyZidzKabE-11">
          <mxGeometry relative="1" as="geometry" />
        </mxCell>
        <mxCell id="FXPIXObTBwbyZidzKabE-7" value="if not verified_email" style="rhombus;whiteSpace=wrap;html=1;" vertex="1" parent="1">
          <mxGeometry x="587.5" y="170" width="140" height="110" as="geometry" />
        </mxCell>
        <mxCell id="FXPIXObTBwbyZidzKabE-8" value="redirect(&quot;register_email&quot;)" style="rounded=0;whiteSpace=wrap;html=1;" vertex="1" parent="1">
          <mxGeometry x="680" y="310" width="140" height="70" as="geometry" />
        </mxCell>
        <mxCell id="FXPIXObTBwbyZidzKabE-18" value="yes" style="edgeStyle=orthogonalEdgeStyle;rounded=0;orthogonalLoop=1;jettySize=auto;html=1;exitX=1;exitY=0.5;exitDx=0;exitDy=0;entryX=0.5;entryY=0;entryDx=0;entryDy=0;" edge="1" parent="1" source="FXPIXObTBwbyZidzKabE-11" target="FXPIXObTBwbyZidzKabE-16">
          <mxGeometry relative="1" as="geometry" />
        </mxCell>
        <mxCell id="FXPIXObTBwbyZidzKabE-58" value="no" style="edgeStyle=orthogonalEdgeStyle;rounded=0;orthogonalLoop=1;jettySize=auto;html=1;entryX=0.5;entryY=0;entryDx=0;entryDy=0;" edge="1" parent="1" source="FXPIXObTBwbyZidzKabE-11" target="FXPIXObTBwbyZidzKabE-57">
          <mxGeometry relative="1" as="geometry" />
        </mxCell>
        <mxCell id="FXPIXObTBwbyZidzKabE-11" value="if request.method==&#39;POST&#39;" style="rhombus;whiteSpace=wrap;html=1;" vertex="1" parent="1">
          <mxGeometry x="370" y="240" width="162.5" height="150" as="geometry" />
        </mxCell>
        <mxCell id="FXPIXObTBwbyZidzKabE-21" value="" style="edgeStyle=orthogonalEdgeStyle;rounded=0;orthogonalLoop=1;jettySize=auto;html=1;" edge="1" parent="1" source="FXPIXObTBwbyZidzKabE-16" target="FXPIXObTBwbyZidzKabE-20">
          <mxGeometry relative="1" as="geometry" />
        </mxCell>
        <mxCell id="FXPIXObTBwbyZidzKabE-16" value="form=UserCreationForm(request.POST)" style="rounded=0;whiteSpace=wrap;html=1;" vertex="1" parent="1">
          <mxGeometry x="510" y="390" width="220" height="30" as="geometry" />
        </mxCell>
        <mxCell id="FXPIXObTBwbyZidzKabE-23" value="" style="edgeStyle=orthogonalEdgeStyle;rounded=0;orthogonalLoop=1;jettySize=auto;html=1;" edge="1" parent="1" source="FXPIXObTBwbyZidzKabE-20" target="FXPIXObTBwbyZidzKabE-22">
          <mxGeometry relative="1" as="geometry">
            <Array as="points">
              <mxPoint x="710" y="523" />
              <mxPoint x="710" y="520" />
              <mxPoint x="775" y="520" />
            </Array>
          </mxGeometry>
        </mxCell>
        <mxCell id="FXPIXObTBwbyZidzKabE-20" value="if form.is_valid()" style="rhombus;whiteSpace=wrap;html=1;rounded=0;" vertex="1" parent="1">
          <mxGeometry x="580" y="475" width="110" height="95" as="geometry" />
        </mxCell>
        <mxCell id="FXPIXObTBwbyZidzKabE-22" value="if form.is_valid()" style="rhombus;whiteSpace=wrap;html=1;rounded=0;" vertex="1" parent="1">
          <mxGeometry x="655" y="540" width="110" height="95" as="geometry" />
        </mxCell>
        <mxCell id="FXPIXObTBwbyZidzKabE-34" value="yes" style="edgeStyle=orthogonalEdgeStyle;rounded=0;orthogonalLoop=1;jettySize=auto;html=1;entryX=0.5;entryY=0;entryDx=0;entryDy=0;" edge="1" parent="1" source="FXPIXObTBwbyZidzKabE-24" target="FXPIXObTBwbyZidzKabE-26">
          <mxGeometry relative="1" as="geometry">
            <Array as="points">
              <mxPoint x="591" y="705" />
              <mxPoint x="591" y="690" />
              <mxPoint x="710" y="690" />
            </Array>
          </mxGeometry>
        </mxCell>
        <mxCell id="FXPIXObTBwbyZidzKabE-56" value="no" style="edgeStyle=orthogonalEdgeStyle;rounded=0;orthogonalLoop=1;jettySize=auto;html=1;exitX=0;exitY=0.5;exitDx=0;exitDy=0;entryX=0.5;entryY=0;entryDx=0;entryDy=0;" edge="1" parent="1" source="FXPIXObTBwbyZidzKabE-24" target="FXPIXObTBwbyZidzKabE-36">
          <mxGeometry relative="1" as="geometry" />
        </mxCell>
        <mxCell id="FXPIXObTBwbyZidzKabE-24" value="if U.exists()" style="rhombus;whiteSpace=wrap;html=1;rounded=0;" vertex="1" parent="1">
          <mxGeometry x="477.5" y="690" width="80" height="70" as="geometry" />
        </mxCell>
        <mxCell id="FXPIXObTBwbyZidzKabE-52" value="" style="edgeStyle=orthogonalEdgeStyle;rounded=0;orthogonalLoop=1;jettySize=auto;html=1;" edge="1" parent="1" source="FXPIXObTBwbyZidzKabE-26" target="FXPIXObTBwbyZidzKabE-51">
          <mxGeometry relative="1" as="geometry">
            <Array as="points">
              <mxPoint x="710" y="800" />
              <mxPoint x="635" y="800" />
            </Array>
          </mxGeometry>
        </mxCell>
        <mxCell id="FXPIXObTBwbyZidzKabE-26" value="messages.error(request,&quot;This email is already registered&quot;)" style="whiteSpace=wrap;html=1;rounded=0;" vertex="1" parent="1">
          <mxGeometry x="625" y="710" width="170" height="80" as="geometry" />
        </mxCell>
        <mxCell id="FXPIXObTBwbyZidzKabE-31" style="edgeStyle=orthogonalEdgeStyle;rounded=0;orthogonalLoop=1;jettySize=auto;html=1;exitX=0.5;exitY=1;exitDx=0;exitDy=0;" edge="1" parent="1" source="FXPIXObTBwbyZidzKabE-29" target="FXPIXObTBwbyZidzKabE-24">
          <mxGeometry relative="1" as="geometry" />
        </mxCell>
        <mxCell id="FXPIXObTBwbyZidzKabE-29" value="U=User.objects.filter(email=verified_email)" style="whiteSpace=wrap;html=1;rounded=0;" vertex="1" parent="1">
          <mxGeometry x="380" y="610" width="275" height="50" as="geometry" />
        </mxCell>
        <mxCell id="FXPIXObTBwbyZidzKabE-33" value="yes" style="edgeStyle=orthogonalEdgeStyle;rounded=0;orthogonalLoop=1;jettySize=auto;html=1;exitX=0;exitY=0.5;exitDx=0;exitDy=0;" edge="1" parent="1" source="FXPIXObTBwbyZidzKabE-32" target="FXPIXObTBwbyZidzKabE-29">
          <mxGeometry relative="1" as="geometry" />
        </mxCell>
        <mxCell id="FXPIXObTBwbyZidzKabE-43" value="no" style="edgeStyle=orthogonalEdgeStyle;rounded=0;orthogonalLoop=1;jettySize=auto;html=1;exitX=0;exitY=0;exitDx=0;exitDy=0;entryX=1;entryY=0.5;entryDx=0;entryDy=0;" edge="1" parent="1" source="FXPIXObTBwbyZidzKabE-32" target="FXPIXObTBwbyZidzKabE-44">
          <mxGeometry relative="1" as="geometry">
            <mxPoint x="470" y="580" as="targetPoint" />
            <Array as="points">
              <mxPoint x="683" y="580" />
              <mxPoint x="530" y="580" />
              <mxPoint x="530" y="500" />
            </Array>
          </mxGeometry>
        </mxCell>
        <mxCell id="FXPIXObTBwbyZidzKabE-32" value="if form.is_valid()" style="rhombus;whiteSpace=wrap;html=1;rounded=0;" vertex="1" parent="1">
          <mxGeometry x="655" y="540" width="110" height="95" as="geometry" />
        </mxCell>
        <mxCell id="FXPIXObTBwbyZidzKabE-39" value="" style="edgeStyle=orthogonalEdgeStyle;rounded=0;orthogonalLoop=1;jettySize=auto;html=1;" edge="1" parent="1" source="FXPIXObTBwbyZidzKabE-36" target="FXPIXObTBwbyZidzKabE-38">
          <mxGeometry relative="1" as="geometry" />
        </mxCell>
        <mxCell id="FXPIXObTBwbyZidzKabE-36" value="create user&#39;s account" style="rounded=0;whiteSpace=wrap;html=1;" vertex="1" parent="1">
          <mxGeometry x="270" y="700" width="180" height="70" as="geometry" />
        </mxCell>
        <mxCell id="FXPIXObTBwbyZidzKabE-41" value="" style="edgeStyle=orthogonalEdgeStyle;rounded=0;orthogonalLoop=1;jettySize=auto;html=1;" edge="1" parent="1" source="FXPIXObTBwbyZidzKabE-38" target="FXPIXObTBwbyZidzKabE-40">
          <mxGeometry relative="1" as="geometry" />
        </mxCell>
        <mxCell id="FXPIXObTBwbyZidzKabE-38" value="user_score=0" style="rounded=0;whiteSpace=wrap;html=1;" vertex="1" parent="1">
          <mxGeometry x="270" y="790" width="180" height="70" as="geometry" />
        </mxCell>
        <mxCell id="FXPIXObTBwbyZidzKabE-46" value="" style="edgeStyle=orthogonalEdgeStyle;rounded=0;orthogonalLoop=1;jettySize=auto;html=1;" edge="1" parent="1" source="FXPIXObTBwbyZidzKabE-40" target="FXPIXObTBwbyZidzKabE-45">
          <mxGeometry relative="1" as="geometry" />
        </mxCell>
        <mxCell id="FXPIXObTBwbyZidzKabE-40" value="login user" style="whiteSpace=wrap;html=1;rounded=0;" vertex="1" parent="1">
          <mxGeometry x="270" y="880" width="180" height="50" as="geometry" />
        </mxCell>
        <mxCell id="FXPIXObTBwbyZidzKabE-44" value="messages.error(request,&quot;form is invalid&quot;)" style="whiteSpace=wrap;html=1;rounded=0;" vertex="1" parent="1">
          <mxGeometry x="340" y="460" width="170" height="80" as="geometry" />
        </mxCell>
        <mxCell id="FXPIXObTBwbyZidzKabE-50" style="edgeStyle=orthogonalEdgeStyle;rounded=0;orthogonalLoop=1;jettySize=auto;html=1;exitX=0.5;exitY=1;exitDx=0;exitDy=0;entryX=0.5;entryY=0;entryDx=0;entryDy=0;" edge="1" parent="1" source="FXPIXObTBwbyZidzKabE-45" target="FXPIXObTBwbyZidzKabE-47">
          <mxGeometry relative="1" as="geometry" />
        </mxCell>
        <mxCell id="FXPIXObTBwbyZidzKabE-45" value="messages.succes(request,&quot;account created &quot;)" style="whiteSpace=wrap;html=1;rounded=0;" vertex="1" parent="1">
          <mxGeometry x="260" y="950" width="200" height="50" as="geometry" />
        </mxCell>
        <mxCell id="FXPIXObTBwbyZidzKabE-54" style="edgeStyle=orthogonalEdgeStyle;rounded=0;orthogonalLoop=1;jettySize=auto;html=1;exitX=1;exitY=0.5;exitDx=0;exitDy=0;entryX=0.5;entryY=0;entryDx=0;entryDy=0;" edge="1" parent="1" source="FXPIXObTBwbyZidzKabE-47" target="FXPIXObTBwbyZidzKabE-53">
          <mxGeometry relative="1" as="geometry">
            <Array as="points">
              <mxPoint x="530" y="1035" />
              <mxPoint x="530" y="930" />
              <mxPoint x="700" y="930" />
            </Array>
          </mxGeometry>
        </mxCell>
        <mxCell id="FXPIXObTBwbyZidzKabE-47" value="redirect(home)" style="whiteSpace=wrap;html=1;rounded=0;" vertex="1" parent="1">
          <mxGeometry x="300" y="1020" width="120" height="30" as="geometry" />
        </mxCell>
        <mxCell id="FXPIXObTBwbyZidzKabE-55" style="edgeStyle=orthogonalEdgeStyle;rounded=0;orthogonalLoop=1;jettySize=auto;html=1;exitX=0.5;exitY=1;exitDx=0;exitDy=0;" edge="1" parent="1" source="FXPIXObTBwbyZidzKabE-51">
          <mxGeometry relative="1" as="geometry">
            <mxPoint x="700" y="980" as="targetPoint" />
            <Array as="points">
              <mxPoint x="635" y="930" />
              <mxPoint x="701" y="930" />
            </Array>
          </mxGeometry>
        </mxCell>
        <mxCell id="FXPIXObTBwbyZidzKabE-51" value="render(request,&quot;accounts/create_account.html&quot;)" style="whiteSpace=wrap;html=1;rounded=0;" vertex="1" parent="1">
          <mxGeometry x="490" y="820" width="290" height="50" as="geometry" />
        </mxCell>
        <mxCell id="FXPIXObTBwbyZidzKabE-53" value="end" style="ellipse;whiteSpace=wrap;html=1;" vertex="1" parent="1">
          <mxGeometry x="640" y="980" width="120" height="80" as="geometry" />
        </mxCell>
        <mxCell id="FXPIXObTBwbyZidzKabE-60" style="edgeStyle=orthogonalEdgeStyle;rounded=0;orthogonalLoop=1;jettySize=auto;html=1;exitX=0.5;exitY=1;exitDx=0;exitDy=0;entryX=0.5;entryY=0;entryDx=0;entryDy=0;" edge="1" parent="1" source="FXPIXObTBwbyZidzKabE-57" target="FXPIXObTBwbyZidzKabE-59">
          <mxGeometry relative="1" as="geometry">
            <mxPoint x="170" y="430" as="targetPoint" />
          </mxGeometry>
        </mxCell>
        <mxCell id="FXPIXObTBwbyZidzKabE-57" value="render(request,&quot;accounts/create_account.html&quot;)" style="whiteSpace=wrap;html=1;rounded=0;" vertex="1" parent="1">
          <mxGeometry x="30" y="350" width="290" height="50" as="geometry" />
        </mxCell>
        <mxCell id="FXPIXObTBwbyZidzKabE-59" value="end" style="ellipse;whiteSpace=wrap;html=1;" vertex="1" parent="1">
          <mxGeometry x="100" y="440" width="120" height="80" as="geometry" />
        </mxCell>
      </root>
    </mxGraphModel>
  </diagram>
</mxfile>
